# Blender 3.3.1
# www.blender.org
mtllib ChristmasTree.mtl
o ChristmasTree
v -0.144294 0.956587 -2.397335
v 0.025182 2.741162 -0.312404
v 1.830064 0.805983 -1.830064
v 0.227474 2.744357 -0.229705
v 2.593238 0.936790 -0.114401
v 0.312136 2.741454 -0.028222
v 1.830064 0.805983 1.830064
v 0.234475 2.666676 0.232210
v 0.000000 0.805983 2.588101
v 0.001715 2.658099 0.329890
v -1.877375 1.068916 1.527077
v -0.232049 2.654407 0.234325
v -2.688551 0.971500 0.191466
v -0.329883 2.657761 0.001496
v -1.687435 0.858805 -2.005893
v -0.234475 2.666197 -0.232210
v 1.020731 1.491121 -1.066654
v -0.000000 1.491121 -1.489455
v 0.000000 0.013669 -0.428351
v 0.000000 0.870370 -0.428351
v 0.370963 0.013669 -0.214175
v 0.370963 0.870370 -0.214175
v 0.370963 0.013669 0.214175
v 0.370963 0.870370 0.214175
v 0.000000 0.013669 0.428351
v 0.000000 0.870370 0.428351
v -0.370963 0.013669 0.214175
v -0.370963 0.870370 0.214175
v -0.370963 0.013669 -0.214175
v -0.370963 0.870370 -0.214175
v 1.443532 1.491121 -0.045923
v 1.020731 1.491121 0.974809
v -0.000000 1.491121 1.397610
v -1.020731 1.491121 0.974809
v -1.443532 1.491121 -0.045923
v -1.020731 1.491121 -1.066654
v -0.249556 1.991388 -1.999554
v 0.000000 4.149065 -0.240279
v 1.206308 1.991388 -1.603255
v 0.177742 4.149065 -0.166656
v 1.955534 2.083233 -0.324191
v 0.251366 4.149065 0.011087
v 1.559234 2.083233 1.139327
v 0.177742 4.149065 0.188829
v 0.249556 2.083233 2.064589
v 0.000000 4.149065 0.262452
v -1.206308 1.991388 1.515214
v -0.177742 4.149065 0.188829
v -1.950397 2.122195 0.091134
v -0.251366 4.149065 0.011087
v -1.559234 1.991388 -1.250329
v -0.177742 4.149065 -0.166656
v 0.425533 2.854225 -0.874334
v -0.300643 2.836538 -0.926548
v 0.902437 2.852728 -0.323943
v 0.850707 2.832923 0.402213
v 0.300643 2.806412 0.878762
v -0.425533 2.788725 0.826547
v -0.902437 2.790222 0.276156
v -0.850707 2.810027 -0.450000
v -0.191298 3.492948 -1.483508
v 0.872608 3.539540 -1.171828
v 1.498402 3.539540 -0.191282
v 1.247554 3.539540 0.944571
v 0.267009 3.539540 1.570365
v 0.001882 6.209597 0.059884
v -0.868845 3.539540 1.319517
v -1.494638 3.539540 0.338971
v -1.243791 3.539540 -0.796882
v 0.367184 4.539060 -0.472575
v -0.115486 4.535561 -0.579113
v 0.633108 4.552733 -0.056127
v 0.526513 4.568574 0.426282
v 0.109840 4.577301 0.692063
v -0.372829 4.573803 0.585526
v -0.638753 4.560129 0.169078
v -0.532158 4.544289 -0.313332
vn 0.2898 0.6530 -0.6997
vn 0.7073 0.6434 -0.2930
vn 0.7006 0.6519 0.2902
vn 0.2931 0.6430 0.7076
vn -0.2919 0.6466 0.7048
vn -0.6983 0.6548 0.2892
vn -0.6902 0.6648 -0.2859
vn -0.2827 0.6739 -0.6826
vn -0.0705 -0.9975 -0.0026
vn 0.2023 0.8488 0.4885
vn 0.5000 -0.0000 -0.8660
vn -0.1585 0.8558 0.4925
vn 1.0000 -0.0000 -0.0000
vn 0.2122 0.8283 -0.5185
vn -0.3565 0.9223 0.1492
vn 0.5000 -0.0000 0.8660
vn 0.4613 0.8453 -0.2696
vn -0.4121 0.8809 -0.2329
vn -0.5000 -0.0000 0.8660
vn -0.1725 0.8695 -0.4629
vn -1.0000 -0.0000 -0.0000
vn 0.4666 0.8512 0.2404
vn -0.5000 -0.0000 -0.8660
vn -0.0000 -1.0000 -0.0000
vn 0.0529 0.4531 -0.8899
vn 0.6760 0.4488 -0.5845
vn 0.8988 0.4318 0.0758
vn 0.5851 0.4124 0.6983
vn -0.0754 0.4020 0.9125
vn -0.6900 0.4065 0.5989
vn -0.9045 0.4231 -0.0529
vn -0.5993 0.4424 -0.6672
vn -0.0219 -0.9991 0.0363
vn 0.3521 0.7923 0.4983
vn -0.2685 0.7666 0.5833
vn 0.1809 0.7251 -0.6645
vn -0.5463 0.7586 0.3551
vn 0.5471 0.7488 -0.3742
vn -0.5987 0.7614 -0.2488
vn -0.3387 0.7312 -0.5921
vn 0.6274 0.7600 0.1699
vn 0.2006 0.3371 -0.9199
vn 0.7886 0.3365 -0.5146
vn 0.9214 0.3376 0.1925
vn 0.5109 0.3396 0.7897
vn -0.2049 0.3417 0.9172
vn -0.7969 0.3425 0.4976
vn -0.9154 0.3414 -0.2135
vn -0.5009 0.3391 -0.7963
vn 0.4211 0.6223 0.6599
vn -0.1689 0.6217 0.7648
vn 0.1914 0.6352 -0.7483
vn -0.6627 0.6180 0.4230
vn 0.6609 0.6207 -0.4218
vn -0.7688 0.6165 -0.1698
vn -0.4120 0.6140 -0.6733
vn 0.7652 0.6213 0.1690
vn 0.2790 0.6492 -0.7076
vn 0.7080 0.6447 -0.2882
vn 0.6879 0.6170 0.3823
vn 0.2739 0.6490 0.7098
vn -0.2980 0.6446 0.7040
vn -0.6903 0.6586 0.2995
vn -0.6934 0.6724 -0.2588
vn -0.3894 0.6356 -0.6667
vn 0.0791 -0.9948 0.0634
vn -0.1110 -0.9860 0.1245
vn 0.0367 -0.9979 -0.0527
vn -0.0585 -0.9882 -0.1413
vn 0.0203 -0.9980 0.0604
vn -0.1722 0.8931 0.4157
vn 0.2157 0.8261 -0.5206
vn -0.3585 0.9216 0.1485
vn 0.4193 0.8911 -0.1737
vn -0.5026 0.8391 -0.2082
vn -0.1964 0.8583 -0.4741
vn 0.4359 0.8817 0.1805
vn 0.3313 0.5005 -0.7998
vn 0.8051 0.4905 -0.3335
vn 0.8148 0.4713 0.3375
vn 0.3409 0.4542 0.8231
vn -0.3419 0.4492 0.8254
vn -0.8206 0.4595 0.3399
vn -0.8111 0.4787 -0.3360
vn -0.3324 0.4957 -0.8024
vn 0.0664 -0.9910 0.1160
vn -0.0139 -0.9986 0.0512
vn 0.0835 -0.9962 0.0226
vn 0.0410 -0.9975 0.0581
vn 0.0192 -0.9947 -0.1014
vn 0.3658 0.8050 0.4671
vn -0.0580 0.8534 0.5180
vn 0.0253 0.7859 -0.6178
vn -0.4585 0.7939 0.3994
vn 0.4762 0.7777 -0.4105
vn -0.5356 0.8444 -0.0151
vn -0.4197 0.7937 -0.4403
vn 0.5888 0.8058 0.0639
vn 0.0164 -0.9956 0.0927
vn 0.4280 0.6275 0.6504
vn -0.1728 0.6238 0.7622
vn 0.1648 0.6200 -0.7671
vn -0.6663 0.6262 0.4049
vn 0.6455 0.6292 -0.4329
vn -0.7567 0.6263 -0.1878
vn -0.4144 0.6160 -0.6700
vn 0.7617 0.6309 0.1476
vt 0.690851 0.799671
vt 0.052273 0.364640
vt 0.231394 0.263316
vt 0.150740 0.475708
vt 0.539008 0.823226
vt 0.243390 0.273188
vt 0.434316 0.729643
vt 0.284239 0.493364
vt 0.258788 0.275517
vt 0.421552 0.427077
vt 0.425840 0.573737
vt 0.421552 0.073601
vt 0.278659 0.273170
vt 0.274117 0.224209
vt 0.299756 0.002144
vt 0.526165 0.465239
vt 0.257998 0.216217
vt 0.687598 0.479536
vt 0.145716 0.039640
vt 0.240100 0.217716
vt 0.049037 0.094232
vt 0.784068 0.545385
vt 0.225812 0.229085
vt 0.784068 0.725717
vt 0.002144 0.264527
vt 0.220531 0.246266
vt 0.189150 0.385578
vt 0.122935 0.331130
vt 0.308881 0.561563
vt 0.340844 0.497653
vt 0.244971 0.561563
vt 0.308881 0.529608
vt 0.368518 0.513630
vt 0.244971 0.529608
vt 0.308881 0.689385
vt 0.308881 0.497653
vt 0.368518 0.545586
vt 0.244971 0.497653
vt 0.244971 0.689385
vt 0.308881 0.657429
vt 0.340844 0.561563
vt 0.244971 0.657429
vt 0.308881 0.625474
vt 0.313170 0.545586
vt 0.244971 0.625474
vt 0.308881 0.593519
vt 0.313170 0.513630
vt 0.244971 0.593519
vt 0.273367 0.399414
vt 0.349673 0.139699
vt 0.346394 0.362261
vt 0.277090 0.101751
vt 0.191386 0.107832
vt 0.124876 0.165092
vt 0.099101 0.247793
vt 0.907210 0.003629
vt 0.445000 0.332128
vt 0.645694 0.250701
vt 0.985949 0.084066
vt 0.505501 0.415891
vt 0.654281 0.261449
vt 0.985949 0.194863
vt 0.598934 0.460951
vt 0.666263 0.267726
vt 0.708340 0.453892
vt 0.905107 0.273975
vt 0.708340 0.014971
vt 0.679729 0.269080
vt 0.675823 0.201037
vt 0.785949 0.284547
vt 0.603051 0.002144
vt 0.662886 0.204208
vt 0.712629 0.194288
vt 0.513286 0.052772
vt 0.651799 0.212100
vt 0.718681 0.074178
vt 0.452779 0.142634
vt 0.644463 0.223698
vt 0.794659 0.002144
vt 0.425840 0.232009
vt 0.642237 0.237319
vt 0.564603 0.329725
vt 0.534432 0.278828
vt 0.611650 0.363352
vt 0.692927 0.099124
vt 0.664994 0.373114
vt 0.639029 0.095843
vt 0.585807 0.118301
vt 0.545683 0.162208
vt 0.527290 0.219473
vt 0.034991 0.822222
vt 0.842689 0.675828
vt 0.788357 0.613378
vt 0.086287 0.872088
vt 0.788357 0.526600
vt 0.155710 0.908115
vt 0.240682 0.911701
vt 0.849717 0.465239
vt 0.140499 0.497653
vt 0.071451 0.535810
vt 0.936495 0.465239
vt 0.240682 0.692486
vt 0.997856 0.526600
vt 0.022649 0.599452
vt 0.997856 0.613378
vt 0.002144 0.673362
vt 0.936495 0.674738
vt 0.007084 0.747002
vt 0.147661 0.792342
vt 0.122362 0.760837
vt 0.182666 0.810092
vt 0.168801 0.590299
vt 0.219120 0.814692
vt 0.139181 0.612919
vt 0.116939 0.644491
vt 0.105155 0.682836
vt 0.105562 0.723724
s 0
usemtl ChristmasTree
f 2/3/1 17/27/1 18/28/1
f 4/6/2 31/49/2 17/27/2
f 31/49/3 8/13/3 32/51/3
f 8/14/4 33/52/4 32/50/4
f 33/52/5 12/20/5 34/53/5
f 34/53/6 14/23/6 35/54/6
f 35/54/7 16/26/7 36/55/7
f 16/26/8 18/28/8 36/55/8
f 1/1/9 7/11/9 11/18/9
f 7/12/10 33/52/10 9/15/10
f 20/31/11 21/32/11 19/29/11
f 33/52/12 11/19/12 9/15/12
f 22/34/13 23/36/13 21/32/13
f 1/2/14 17/27/14 3/4/14
f 11/19/15 35/54/15 13/21/15
f 24/39/16 25/40/16 23/35/16
f 17/27/17 5/8/17 3/4/17
f 35/54/18 15/25/18 13/21/18
f 26/42/19 27/43/19 25/40/19
f 36/55/20 1/2/20 15/25/20
f 28/45/21 29/46/21 27/43/21
f 5/8/22 32/51/22 7/10/22
f 30/48/23 19/29/23 29/46/23
f 21/33/24 25/41/24 29/47/24
f 38/58/25 53/82/25 54/83/25
f 40/61/26 55/84/26 53/82/26
f 42/64/27 56/86/27 55/84/27
f 44/69/28 57/87/28 56/85/28
f 46/72/29 58/88/29 57/87/29
f 48/75/30 59/89/30 58/88/30
f 50/78/31 60/90/31 59/89/31
f 52/81/32 54/83/32 60/90/32
f 43/66/33 49/76/33 39/59/33
f 43/67/34 57/87/34 45/71/34
f 45/71/35 58/88/35 47/74/35
f 37/57/36 53/82/36 39/60/36
f 47/74/37 59/89/37 49/77/37
f 39/60/38 55/84/38 41/63/38
f 49/77/39 60/90/39 51/80/39
f 51/80/40 54/83/40 37/57/40
f 41/63/41 56/86/41 43/65/41
f 71/110/42 66/102/42 70/109/42
f 70/109/43 66/102/43 72/111/43
f 72/111/44 66/102/44 73/113/44
f 73/112/45 66/102/45 74/114/45
f 74/114/46 66/102/46 75/115/46
f 75/115/47 66/102/47 76/116/47
f 76/116/48 66/102/48 77/117/48
f 77/117/49 66/102/49 71/110/49
f 69/107/24 62/93/24 64/98/24
f 64/99/50 74/114/50 65/100/50
f 74/114/51 67/104/51 65/100/51
f 71/110/52 62/94/52 61/91/52
f 75/115/53 68/106/53 67/104/53
f 62/94/54 72/111/54 63/96/54
f 76/116/55 69/108/55 68/106/55
f 69/108/56 71/110/56 61/91/56
f 63/96/57 73/113/57 64/97/57
f 2/3/58 4/6/58 17/27/58
f 4/6/59 6/9/59 31/49/59
f 31/49/60 6/9/60 8/13/60
f 8/14/61 10/17/61 33/52/61
f 33/52/62 10/17/62 12/20/62
f 34/53/63 12/20/63 14/23/63
f 35/54/64 14/23/64 16/26/64
f 16/26/65 2/3/65 18/28/65
f 15/24/66 1/1/66 11/18/66
f 1/1/67 3/5/67 5/7/67
f 7/11/68 1/1/68 5/7/68
f 7/11/69 9/16/69 11/18/69
f 11/18/70 13/22/70 15/24/70
f 7/12/10 32/50/10 33/52/10
f 20/31/11 22/34/11 21/32/11
f 33/52/71 34/53/71 11/19/71
f 22/34/13 24/38/13 23/36/13
f 1/2/72 18/28/72 17/27/72
f 11/19/73 34/53/73 35/54/73
f 24/39/16 26/42/16 25/40/16
f 17/27/74 31/49/74 5/8/74
f 35/54/75 36/55/75 15/25/75
f 26/42/19 28/45/19 27/43/19
f 36/55/76 18/28/76 1/2/76
f 28/45/21 30/48/21 29/46/21
f 5/8/77 31/49/77 32/51/77
f 30/48/23 20/31/23 19/29/23
f 29/47/24 19/30/24 21/33/24
f 21/33/24 23/37/24 25/41/24
f 25/41/24 27/44/24 29/47/24
f 38/58/78 40/61/78 53/82/78
f 40/61/79 42/64/79 55/84/79
f 42/64/80 44/68/80 56/86/80
f 44/69/81 46/72/81 57/87/81
f 46/72/82 48/75/82 58/88/82
f 48/75/83 50/78/83 59/89/83
f 50/78/84 52/81/84 60/90/84
f 52/81/85 38/58/85 54/83/85
f 51/79/86 37/56/86 49/76/86
f 37/56/87 39/59/87 49/76/87
f 39/59/88 41/62/88 43/66/88
f 43/66/89 45/70/89 47/73/89
f 47/73/90 49/76/90 43/66/90
f 43/67/91 56/85/91 57/87/91
f 45/71/92 57/87/92 58/88/92
f 37/57/93 54/83/93 53/82/93
f 47/74/94 58/88/94 59/89/94
f 39/60/95 53/82/95 55/84/95
f 49/77/96 59/89/96 60/90/96
f 51/80/97 60/90/97 54/83/97
f 41/63/98 55/84/98 56/86/98
f 69/107/99 61/92/99 62/93/99
f 62/93/24 63/95/24 64/98/24
f 64/98/24 65/101/24 69/107/24
f 65/101/24 67/103/24 69/107/24
f 67/103/24 68/105/24 69/107/24
f 64/99/100 73/112/100 74/114/100
f 74/114/101 75/115/101 67/104/101
f 71/110/102 70/109/102 62/94/102
f 75/115/103 76/116/103 68/106/103
f 62/94/104 70/109/104 72/111/104
f 76/116/105 77/117/105 69/108/105
f 69/108/106 77/117/106 71/110/106
f 63/96/107 72/111/107 73/113/107
