# Blender 3.3.1
# www.blender.org
mtllib Field.mtl
o Field
v -20.186291 0.013135 20.000000
v 19.813711 0.013135 20.000000
v -20.186291 0.013135 -20.000000
v 19.813711 0.013135 -20.000000
v -20.186291 -0.146179 -16.000000
v -20.186291 0.013135 -12.000000
v -20.186291 0.145277 -8.000001
v -20.186291 0.013135 -4.000000
v -20.186291 0.145277 -0.000000
v -20.186291 0.013135 4.000000
v -20.186291 0.013135 8.000000
v -20.186291 0.013135 12.000000
v -20.186291 0.013135 16.000000
v 19.813711 0.013135 16.000000
v 19.813711 0.013135 12.000000
v 19.813711 0.013135 8.000001
v 19.813711 0.013135 4.000000
v 19.813711 0.145277 -0.000000
v 19.813711 0.013135 -4.000000
v 19.813711 0.145277 -8.000000
v 19.813711 0.013135 -12.000000
v 19.813711 -0.146179 -16.000000
v -15.958033 0.013135 20.000000
v -11.958034 0.013135 20.000000
v -7.958034 -0.146179 20.000000
v -3.958033 0.013135 20.000000
v 0.041967 0.013135 20.000000
v 4.041967 0.013135 20.000000
v 8.041966 -0.146179 20.000000
v 12.041968 0.013135 20.000000
v 16.041967 0.013135 20.000000
v 16.041967 0.013135 -20.000000
v 12.041968 0.013135 -20.000000
v 8.041967 -0.146179 -20.000000
v 4.041967 0.013135 -20.000000
v 0.041967 0.013135 -20.000000
v -3.958033 0.013135 -20.000000
v -7.958034 -0.146179 -20.000000
v -11.958034 0.013135 -20.000000
v -15.958033 0.013135 -20.000000
v 16.041967 -0.146179 16.000000
v 12.041968 0.145277 16.000000
v 8.041967 0.013135 16.000000
v 4.041967 0.013135 16.000000
v 0.041967 0.013135 16.000000
v -3.958033 -0.146179 16.000000
v -7.958034 0.013135 16.000000
v -11.958034 0.013135 16.000000
v -15.958033 -0.146179 16.000000
v 16.041967 0.013135 12.000000
v 12.041968 0.013135 12.000000
v 8.041967 0.145277 12.000000
v 4.041967 0.013135 12.000000
v 0.041967 0.013135 12.000000
v -3.958033 0.013135 12.000000
v -7.958034 -0.146179 12.000000
v -11.958034 0.145277 12.000000
v -15.958033 -0.146179 12.000000
v 16.041967 0.013135 8.000001
v 12.041968 -0.146179 8.000001
v 8.041967 0.013135 8.000001
v 4.041967 -0.146179 8.000001
v 0.041967 0.013135 8.000001
v -3.958033 0.013135 8.000001
v -7.958034 0.013135 8.000001
v -11.958034 0.013135 8.000001
v -15.958033 0.013135 8.000001
v 16.041967 0.145277 4.000000
v 12.041968 -0.146179 4.000000
v 8.041967 0.013135 4.000000
v 4.041967 0.145277 4.000000
v 0.041967 0.013135 4.000000
v -3.958033 0.013135 4.000000
v -7.958034 0.013135 4.000000
v -11.958034 0.013135 4.000000
v -15.958033 0.013135 4.000000
v 16.041967 0.013135 -0.000000
v 12.041968 0.013135 -0.000000
v 8.041967 0.013135 -0.000000
v 4.041967 0.013135 -0.000000
v 0.041967 0.013135 -0.000000
v -3.958033 0.013135 -0.000000
v -7.958034 0.013135 -0.000000
v -11.958034 -0.146179 -0.000000
v -15.958033 0.013135 -0.000000
v 16.041967 0.013135 -4.000000
v 12.041968 0.013135 -4.000000
v 8.041967 -0.146179 -4.000000
v 4.041967 0.013135 -4.000000
v 0.041967 0.013135 -4.000000
v -3.958033 0.013135 -4.000000
v -7.958034 0.013135 -4.000000
v -11.958034 0.145277 -4.000000
v -15.958033 0.013135 -4.000000
v 16.041967 0.145277 -8.000000
v 12.041968 0.013135 -8.000000
v 8.041967 0.145277 -8.000000
v 4.041967 0.013135 -8.000000
v 0.041967 0.013135 -8.000000
v -3.958033 0.013135 -8.000000
v -7.958034 0.013135 -8.000000
v -11.958034 0.013135 -8.000000
v -15.958033 -0.146179 -8.000001
v 16.041967 0.013135 -12.000000
v 12.041968 0.013135 -12.000000
v 8.041967 0.013135 -12.000000
v 4.041967 0.013135 -12.000000
v 0.041967 0.013135 -12.000000
v -3.958033 -0.146179 -12.000000
v -7.958034 0.013135 -12.000000
v -11.958034 -0.146179 -12.000000
v -15.958033 0.013135 -12.000000
v 16.041967 0.013135 -16.000000
v 12.041968 0.013135 -16.000000
v 8.041967 0.013135 -16.000000
v 4.041967 0.013135 -16.000000
v 0.041967 0.013135 -16.000000
v -3.958033 -0.146179 -16.000000
v -7.958034 0.145277 -16.000000
v -11.958034 0.013135 -16.000000
v -15.958033 -0.146179 -16.000000
vn -0.0000 1.0000 -0.0000
vn -0.0422 0.9983 -0.0398
vn -0.0422 0.9983 0.0398
vn 0.0350 0.9988 0.0330
vn 0.0350 0.9988 -0.0330
vn -0.0000 0.9995 0.0330
vn -0.0000 0.9995 -0.0330
vn -0.0000 0.9992 -0.0398
vn 0.0398 0.9984 -0.0398
vn -0.0398 0.9984 0.0398
vn 0.0726 0.9968 0.0329
vn -0.0398 0.9992 -0.0000
vn 0.0398 0.9984 0.0398
vn -0.0398 0.9984 -0.0398
vn 0.0330 0.9989 -0.0330
vn -0.0330 0.9995 -0.0000
vn -0.0397 0.9966 0.0726
vn 0.0312 0.9990 -0.0330
vn 0.0312 0.9990 0.0330
vn -0.0726 0.9966 0.0397
vn 0.0398 0.9992 -0.0000
vn 0.0377 0.9993 -0.0000
vn -0.0330 0.9989 0.0330
vn -0.0000 0.9992 0.0398
vn 0.0725 0.9947 -0.0725
vn 0.0422 0.9983 0.0398
vn -0.0350 0.9988 0.0330
vn -0.0350 0.9988 -0.0330
vn 0.0422 0.9983 -0.0398
vn 0.0687 0.9968 0.0397
vn -0.0330 0.9989 -0.0330
vn 0.0687 0.9968 -0.0397
vn 0.0397 0.9966 0.0726
vn 0.0330 0.9995 -0.0000
vn -0.0726 0.9968 0.0329
vn 0.0376 0.9985 0.0398
vn 0.0726 0.9966 0.0397
vn 0.0726 0.9966 -0.0397
vn 0.0376 0.9985 -0.0398
vn 0.0397 0.9966 -0.0726
vt 0.000000 0.000000
vt 1.000000 0.000000
vt 0.000000 1.000000
vt 1.000000 1.000000
vt 0.000000 0.900000
vt 0.000000 0.800000
vt 0.000000 0.700000
vt 0.000000 0.600000
vt 0.000000 0.500000
vt 0.000000 0.400000
vt 0.000000 0.300000
vt 0.000000 0.200000
vt 0.000000 0.100000
vt 1.000000 0.100000
vt 1.000000 0.200000
vt 1.000000 0.300000
vt 1.000000 0.400000
vt 1.000000 0.500000
vt 1.000000 0.600000
vt 1.000000 0.700000
vt 1.000000 0.800000
vt 1.000000 0.900000
vt 0.105706 0.000000
vt 0.205706 0.000000
vt 0.305706 0.000000
vt 0.405706 0.000000
vt 0.505706 0.000000
vt 0.605706 0.000000
vt 0.705706 0.000000
vt 0.805706 0.000000
vt 0.905706 0.000000
vt 0.905706 1.000000
vt 0.805706 1.000000
vt 0.705706 1.000000
vt 0.605706 1.000000
vt 0.505706 1.000000
vt 0.405706 1.000000
vt 0.305706 1.000000
vt 0.205706 1.000000
vt 0.105706 1.000000
vt 0.905706 0.100000
vt 0.805706 0.100000
vt 0.705706 0.100000
vt 0.605706 0.100000
vt 0.505706 0.100000
vt 0.405706 0.100000
vt 0.305706 0.100000
vt 0.205706 0.100000
vt 0.105706 0.100000
vt 0.905706 0.200000
vt 0.805706 0.200000
vt 0.705706 0.200000
vt 0.605706 0.200000
vt 0.505706 0.200000
vt 0.405706 0.200000
vt 0.305706 0.200000
vt 0.205706 0.200000
vt 0.105706 0.200000
vt 0.905706 0.300000
vt 0.805706 0.300000
vt 0.705706 0.300000
vt 0.605706 0.300000
vt 0.505706 0.300000
vt 0.405706 0.300000
vt 0.305706 0.300000
vt 0.205706 0.300000
vt 0.105706 0.300000
vt 0.905706 0.400000
vt 0.805706 0.400000
vt 0.705706 0.400000
vt 0.605706 0.400000
vt 0.505706 0.400000
vt 0.405706 0.400000
vt 0.305706 0.400000
vt 0.205706 0.400000
vt 0.105706 0.400000
vt 0.905706 0.500000
vt 0.805706 0.500000
vt 0.705706 0.500000
vt 0.605706 0.500000
vt 0.505706 0.500000
vt 0.405706 0.500000
vt 0.305706 0.500000
vt 0.205706 0.500000
vt 0.105706 0.500000
vt 0.905706 0.600000
vt 0.805706 0.600000
vt 0.705706 0.600000
vt 0.605706 0.600000
vt 0.505706 0.600000
vt 0.405706 0.600000
vt 0.305706 0.600000
vt 0.205706 0.600000
vt 0.105706 0.600000
vt 0.905706 0.700000
vt 0.805706 0.700000
vt 0.705706 0.700000
vt 0.605706 0.700000
vt 0.505706 0.700000
vt 0.405706 0.700000
vt 0.305706 0.700000
vt 0.205706 0.700000
vt 0.105706 0.700000
vt 0.905706 0.800000
vt 0.805706 0.800000
vt 0.705706 0.800000
vt 0.605706 0.800000
vt 0.505706 0.800000
vt 0.405706 0.800000
vt 0.305706 0.800000
vt 0.205706 0.800000
vt 0.105706 0.800000
vt 0.905706 0.900000
vt 0.805706 0.900000
vt 0.705706 0.900000
vt 0.605706 0.900000
vt 0.505706 0.900000
vt 0.405706 0.900000
vt 0.305706 0.900000
vt 0.205706 0.900000
vt 0.105706 0.900000
s 0
usemtl Field
f 113/113/1 4/4/1 32/32/1
f 31/31/2 14/14/2 41/41/2
f 14/14/3 50/50/3 41/41/3
f 15/15/1 59/59/1 50/50/1
f 59/59/4 17/17/4 68/68/4
f 17/17/5 77/77/5 68/68/5
f 77/77/1 19/19/1 86/86/1
f 19/19/6 95/95/6 86/86/6
f 20/20/7 104/104/7 95/95/7
f 21/21/1 113/113/1 104/104/1
f 112/112/8 5/5/8 6/6/8
f 111/111/9 121/121/9 112/112/9
f 110/110/10 120/120/10 111/111/10
f 110/110/11 118/118/11 119/119/11
f 108/108/12 118/118/12 109/109/12
f 107/107/1 117/117/1 108/108/1
f 106/106/1 116/116/1 107/107/1
f 105/105/1 115/115/1 106/106/1
f 104/104/1 114/114/1 105/105/1
f 7/7/7 112/112/7 6/6/7
f 103/103/13 111/111/13 112/112/13
f 102/102/14 110/110/14 111/111/14
f 100/100/1 110/110/1 101/101/1
f 100/100/14 108/108/14 109/109/14
f 98/98/1 108/108/1 99/99/1
f 98/98/1 106/106/1 107/107/1
f 96/96/15 106/106/15 97/97/15
f 96/96/1 104/104/1 105/105/1
f 94/94/6 7/7/6 8/8/6
f 94/94/14 102/102/14 103/103/14
f 92/92/15 102/102/15 93/93/15
f 91/91/1 101/101/1 92/92/1
f 90/90/1 100/100/1 91/91/1
f 89/89/1 99/99/1 90/90/1
f 89/89/16 97/97/16 98/98/16
f 87/87/17 97/97/17 88/88/17
f 86/86/1 96/96/1 87/87/1
f 85/85/18 8/8/18 9/9/18
f 85/85/16 93/93/16 94/94/16
f 83/83/17 93/93/17 84/84/17
f 82/82/1 92/92/1 83/83/1
f 81/81/1 91/91/1 82/82/1
f 80/80/1 90/90/1 81/81/1
f 79/79/1 89/89/1 80/80/1
f 79/79/14 87/87/14 88/88/14
f 77/77/1 87/87/1 78/78/1
f 10/10/19 85/85/19 9/9/19
f 75/75/1 85/85/1 76/76/1
f 75/75/14 83/83/14 84/84/14
f 73/73/1 83/83/1 74/74/1
f 72/72/1 82/82/1 73/73/1
f 72/72/1 80/80/1 81/81/1
f 70/70/15 80/80/15 71/71/15
f 70/70/1 78/78/1 79/79/1
f 68/68/20 78/78/20 69/69/20
f 11/11/1 76/76/1 10/10/1
f 66/66/1 76/76/1 67/67/1
f 65/65/1 75/75/1 66/66/1
f 64/64/1 74/74/1 65/65/1
f 63/63/1 73/73/1 64/64/1
f 63/63/16 71/71/16 72/72/16
f 61/61/17 71/71/17 62/62/17
f 60/60/21 70/70/21 61/61/21
f 59/59/12 69/69/12 60/60/12
f 12/12/1 67/67/1 11/11/1
f 57/57/20 67/67/20 58/58/20
f 57/57/7 65/65/7 66/66/7
f 55/55/10 65/65/10 56/56/10
f 54/54/1 64/64/1 55/55/1
f 53/53/1 63/63/1 54/54/1
f 53/53/14 61/61/14 62/62/14
f 51/51/15 61/61/15 52/52/15
f 51/51/14 59/59/14 60/60/14
f 49/49/22 12/12/22 13/13/22
f 48/48/12 58/58/12 49/49/12
f 47/47/6 57/57/6 48/48/6
f 46/46/9 56/56/9 47/47/9
f 45/45/10 55/55/10 46/46/10
f 44/44/1 54/54/1 45/45/1
f 43/43/1 53/53/1 44/44/1
f 42/42/23 52/52/23 43/43/23
f 42/42/7 50/50/7 51/51/7
f 23/23/1 13/13/1 1/1/1
f 23/23/14 48/48/14 49/49/14
f 24/24/1 47/47/1 48/48/1
f 26/26/10 47/47/10 25/25/10
f 26/26/14 45/45/14 46/46/14
f 28/28/1 45/45/1 27/27/1
f 28/28/1 43/43/1 44/44/1
f 30/30/10 43/43/10 29/29/10
f 31/31/6 42/42/6 30/30/6
f 121/121/24 3/3/24 5/5/24
f 120/120/10 40/40/10 121/121/10
f 119/119/16 39/39/16 120/120/16
f 118/118/25 38/38/25 119/119/25
f 117/117/10 37/37/10 118/118/10
f 116/116/1 36/36/1 117/117/1
f 115/115/1 35/35/1 116/116/1
f 115/115/14 33/33/14 34/34/14
f 113/113/1 33/33/1 114/114/1
f 113/113/26 22/22/26 4/4/26
f 31/31/1 2/2/1 14/14/1
f 14/14/1 15/15/1 50/50/1
f 15/15/1 16/16/1 59/59/1
f 59/59/1 16/16/1 17/17/1
f 17/17/27 18/18/27 77/77/27
f 77/77/28 18/18/28 19/19/28
f 19/19/6 20/20/6 95/95/6
f 20/20/7 21/21/7 104/104/7
f 21/21/29 22/22/29 113/113/29
f 112/112/8 121/121/8 5/5/8
f 111/111/10 120/120/10 121/121/10
f 110/110/23 119/119/23 120/120/23
f 110/110/21 109/109/21 118/118/21
f 108/108/12 117/117/12 118/118/12
f 107/107/1 116/116/1 117/117/1
f 106/106/1 115/115/1 116/116/1
f 105/105/1 114/114/1 115/115/1
f 104/104/1 113/113/1 114/114/1
f 7/7/30 103/103/30 112/112/30
f 103/103/14 102/102/14 111/111/14
f 102/102/1 101/101/1 110/110/1
f 100/100/9 109/109/9 110/110/9
f 100/100/1 99/99/1 108/108/1
f 98/98/1 107/107/1 108/108/1
f 98/98/31 97/97/31 106/106/31
f 96/96/1 105/105/1 106/106/1
f 96/96/31 95/95/31 104/104/31
f 94/94/32 103/103/32 7/7/32
f 94/94/31 93/93/31 102/102/31
f 92/92/1 101/101/1 102/102/1
f 91/91/1 100/100/1 101/101/1
f 90/90/1 99/99/1 100/100/1
f 89/89/1 98/98/1 99/99/1
f 89/89/33 88/88/33 97/97/33
f 87/87/34 96/96/34 97/97/34
f 86/86/23 95/95/23 96/96/23
f 85/85/1 94/94/1 8/8/1
f 85/85/33 84/84/33 93/93/33
f 83/83/34 92/92/34 93/93/34
f 82/82/1 91/91/1 92/92/1
f 81/81/1 90/90/1 91/91/1
f 80/80/1 89/89/1 90/90/1
f 79/79/9 88/88/9 89/89/9
f 79/79/1 78/78/1 87/87/1
f 77/77/1 86/86/1 87/87/1
f 10/10/1 76/76/1 85/85/1
f 75/75/9 84/84/9 85/85/9
f 75/75/1 74/74/1 83/83/1
f 73/73/1 82/82/1 83/83/1
f 72/72/1 81/81/1 82/82/1
f 72/72/31 71/71/31 80/80/31
f 70/70/1 79/79/1 80/80/1
f 70/70/13 69/69/13 78/78/13
f 68/68/7 77/77/7 78/78/7
f 11/11/1 67/67/1 76/76/1
f 66/66/1 75/75/1 76/76/1
f 65/65/1 74/74/1 75/75/1
f 64/64/1 73/73/1 74/74/1
f 63/63/1 72/72/1 73/73/1
f 63/63/33 62/62/33 71/71/33
f 61/61/34 70/70/34 71/71/34
f 60/60/21 69/69/21 70/70/21
f 59/59/35 68/68/35 69/69/35
f 12/12/36 58/58/36 67/67/36
f 57/57/7 66/66/7 67/67/7
f 57/57/37 56/56/37 65/65/37
f 55/55/1 64/64/1 65/65/1
f 54/54/1 63/63/1 64/64/1
f 53/53/9 62/62/9 63/63/9
f 53/53/31 52/52/31 61/61/31
f 51/51/9 60/60/9 61/61/9
f 51/51/1 50/50/1 59/59/1
f 49/49/22 58/58/22 12/12/22
f 48/48/35 57/57/35 58/58/35
f 47/47/38 56/56/38 57/57/38
f 46/46/10 55/55/10 56/56/10
f 45/45/1 54/54/1 55/55/1
f 44/44/1 53/53/1 54/54/1
f 43/43/23 52/52/23 53/53/23
f 42/42/15 51/51/15 52/52/15
f 42/42/37 41/41/37 50/50/37
f 23/23/39 49/49/39 13/13/39
f 23/23/1 24/24/1 48/48/1
f 24/24/13 25/25/13 47/47/13
f 26/26/9 46/46/9 47/47/9
f 26/26/1 27/27/1 45/45/1
f 28/28/1 44/44/1 45/45/1
f 28/28/13 29/29/13 43/43/13
f 30/30/23 42/42/23 43/43/23
f 31/31/38 41/41/38 42/42/38
f 121/121/24 40/40/24 3/3/24
f 120/120/1 39/39/1 40/40/1
f 119/119/40 38/38/40 39/39/40
f 118/118/10 37/37/10 38/38/10
f 117/117/1 36/36/1 37/37/1
f 116/116/1 35/35/1 36/36/1
f 115/115/9 34/34/9 35/35/9
f 115/115/1 114/114/1 33/33/1
f 113/113/1 32/32/1 33/33/1
