# Blender 3.3.1
# www.blender.org
mtllib Stone-1.mtl
o Stone-1
v -0.495089 -0.000000 0.625401
v -0.644207 0.000000 -0.680945
v 0.827896 0.000000 0.827896
v 0.809527 0.000000 -0.754420
v -0.508749 -0.000000 -0.055210
v 0.827896 0.000000 0.012271
v 0.000000 0.000000 -0.827896
v 0.000000 0.000000 0.772789
v 0.000000 0.000000 0.012271
v -0.313643 1.270767 0.351590
v -0.243313 1.312110 0.452317
v -0.250073 1.393345 0.354649
v -0.361818 1.142517 -0.225418
v -0.415959 1.069357 -0.332622
v -0.448696 1.029584 -0.195965
v 0.478541 1.565990 0.444272
v 0.484417 1.490997 0.531027
v 0.570546 1.485257 0.464075
v 0.438175 1.081122 -0.474855
v 0.561047 1.002167 -0.495732
v 0.448147 0.959063 -0.555404
v -0.491753 0.686382 0.403267
v -0.510279 0.550557 0.496208
v -0.408548 0.743176 0.495443
v -0.549075 0.861516 -0.639228
v -0.644207 0.755852 -0.680945
v -0.591778 0.841546 -0.518147
v 0.748753 0.568928 -0.651978
v 0.785473 0.432889 -0.753748
v 0.645568 0.625118 -0.727230
v 0.683792 0.922633 0.661634
v 0.786284 0.783405 0.694946
v 0.760769 0.887274 0.602980
v -0.255570 1.341824 -0.011998
v -0.354289 1.158690 -0.033537
v -0.301929 1.260530 0.122069
v -0.235020 1.381863 0.124290
v 0.607868 1.489548 0.076669
v 0.608099 1.401343 -0.058406
v 0.524653 1.521515 -0.041853
v 0.524800 1.569833 0.077523
v 0.783477 0.621453 0.082562
v 0.803877 0.432245 0.012942
v 0.785118 0.577052 -0.057738
v -0.501271 0.696872 -0.109748
v -0.508749 0.535968 -0.055210
v -0.487360 0.676304 0.027202
v -0.033949 1.099582 -0.523012
v -0.175146 1.102942 -0.468496
v -0.174680 1.206582 -0.368887
v -0.050221 1.204607 -0.416584
v -0.097266 1.492978 0.478239
v 0.035440 1.586613 0.492216
v 0.037226 1.655723 0.408538
v -0.074779 1.615246 0.393010
v -0.084170 0.896433 0.593887
v -0.015703 0.782701 0.639235
v 0.051447 0.922945 0.619014
v 0.051917 0.849605 -0.766105
v 0.000000 0.755266 -0.827896
v -0.094347 0.878487 -0.756193
v 0.064164 1.647367 0.082014
v 0.056156 1.595019 -0.036596
v -0.071588 1.528614 -0.036992
v -0.050790 1.604162 0.091128
vn -0.1916 0.7470 -0.6366
vn 0.9076 0.4153 -0.0612
vn -0.0658 0.2015 0.9773
vn -0.7734 0.6283 -0.0845
vn -0.0000 -1.0000 -0.0000
vn -0.6818 0.6194 -0.3893
vn -0.2224 -0.0000 -0.9750
vn -0.0655 0.1636 0.9844
vn 0.9982 0.0555 -0.0239
vn -0.2788 0.2121 0.9366
vn 0.0904 0.0066 -0.9959
vn -0.9326 0.2212 0.2851
vn -0.9995 -0.0229 0.0201
vn -0.3604 0.1741 0.9164
vn 0.2632 0.5598 -0.7857
vn -0.9774 -0.0000 0.2116
vn 0.9985 0.0555 -0.0000
vn 0.9786 0.1976 -0.0582
vn 0.0885 0.6894 -0.7189
vn 0.1662 0.9856 0.0313
vn -0.8173 0.4139 0.4008
vn -0.7942 0.6075 -0.0135
vn 0.4775 0.6805 0.5559
vn 0.2164 0.5500 -0.8066
vn -0.7874 0.4177 0.4534
vn -0.7090 0.6920 -0.1359
vn 0.6660 0.5537 -0.4998
vn 0.6430 0.5901 0.4881
vn -0.8756 0.4830 -0.0099
vn 0.6655 0.6916 -0.2807
vn 0.9929 0.1163 -0.0252
vn -0.9900 0.0844 0.1132
vn -0.2539 0.6688 -0.6988
vn -0.4681 0.5616 0.6822
vn -0.2224 0.2426 0.9443
vn 0.0471 0.5291 -0.8473
vn -0.3533 0.8645 -0.3577
vn -0.7924 0.2890 0.5372
vn -0.8800 0.4750 -0.0055
vn 0.0985 0.7158 -0.6913
vn 0.6923 0.7153 0.0948
vn -0.7191 0.4815 0.5010
vn -0.7879 0.6158 -0.0095
vn 0.2191 0.5457 -0.8088
vn 0.5852 0.3710 0.7210
vn -0.3533 0.1552 0.9226
vn 0.9921 0.1203 -0.0364
vn 0.2248 0.4443 -0.8672
vn -0.9568 0.1322 0.2589
vn -0.8840 0.4605 -0.0807
vn 0.3258 0.6806 -0.6563
vn 0.9608 0.2764 -0.0228
vn -0.9914 0.1310 -0.0062
vn 0.1477 0.9011 -0.4077
vn 0.9725 0.1959 -0.1262
vn -0.9504 0.2794 0.1369
vn -0.5054 0.8100 -0.2975
vn 0.1051 0.7559 0.6463
vn -0.0683 0.1843 0.9805
vn -0.2298 0.5293 -0.8167
vn -0.7155 0.6920 -0.0954
vn -0.2332 0.7331 -0.6389
vn -0.3550 0.9334 -0.0532
vn -0.2261 0.1775 0.9578
vn -0.2288 0.7353 -0.6379
vn -0.9521 0.3053 -0.0193
vn -0.3516 0.8387 -0.4159
vn 0.9374 0.2011 -0.2844
vn -0.0451 0.1864 0.9814
vn -0.7751 0.6265 -0.0819
vn -0.5569 0.7270 -0.4017
vn -0.0685 0.1665 0.9837
vn -0.3396 0.1516 0.9283
vn 0.0940 -0.0000 -0.9956
vn -0.9098 0.2328 0.3437
vn -1.0000 -0.0000 -0.0028
vn -0.3712 0.1689 0.9131
vn 0.1631 0.7161 -0.6787
vn 0.9986 0.0528 -0.0014
vn 0.9422 0.3216 0.0943
vn 0.0986 0.6802 -0.7264
vn 0.1999 0.9798 -0.0086
vn -0.8794 0.4759 -0.0155
vn 0.7396 0.5641 -0.3671
vn -0.2562 0.6704 -0.6963
vn -0.3451 0.7273 0.5933
vn -0.4198 0.8100 -0.4095
vn -0.8373 0.2788 0.4702
vn -0.7949 0.6063 -0.0199
vn 0.1059 0.5537 -0.8259
vn 0.6492 0.7573 0.0709
vn -0.7169 0.5108 0.4745
vn -0.7234 0.6753 -0.1437
vn 0.6718 0.4911 -0.5545
vn 0.6645 0.3631 0.6532
vn -0.3543 0.1907 0.9155
vn 0.9799 0.1918 -0.0552
vn 0.2023 0.2768 -0.9394
vn -0.9616 0.1157 0.2488
vn -0.8733 0.4828 -0.0661
vn 0.5960 0.5004 -0.6280
vn 0.9932 0.0983 -0.0621
vn -0.9870 0.1597 -0.0158
vn 0.1398 0.9178 -0.3716
vn 0.9762 0.2096 -0.0549
vn -0.9501 0.2795 0.1385
vn -0.4493 0.6201 -0.6431
vn 0.1043 0.7657 0.6347
vn -0.0661 0.1734 0.9826
vn -0.2064 0.3693 -0.9061
vn -0.7659 0.6005 -0.2298
vn -0.3615 0.6990 -0.6170
vn -0.3318 0.9414 -0.0609
vn -0.2133 0.1814 0.9600
vn 0.0930 0.7104 -0.6976
vn -0.9562 0.2860 -0.0616
vt 0.727557 0.393943
vt 0.998024 0.001976
vt 0.392216 0.329675
vt 0.365431 0.031876
vt 0.326237 0.705408
vt 0.700279 0.032470
vt 0.731797 0.700244
vt 0.691883 0.382917
vt 0.001976 0.001976
vt 0.312476 0.361466
vt 0.361478 0.003373
vt 0.696326 0.023090
vt 0.844431 0.018702
vt 0.392818 0.174869
vt 0.187502 0.003268
vt 0.696326 0.197491
vt 0.326237 0.550685
vt 0.512687 0.001976
vt 0.731797 0.511456
vt 0.503968 0.365880
vt 0.508110 0.192982
vt 0.659793 0.882900
vt 0.970683 0.301296
vt 0.425986 0.449140
vt 0.998024 0.311820
vt 0.650388 0.915190
vt 0.627140 0.893993
vt 0.001976 0.659742
vt 0.624281 0.732431
vt 0.034478 0.666262
vt 0.012300 0.692456
vt 0.837427 0.257139
vt 0.659793 0.719789
vt 0.455936 0.958097
vt 0.061776 0.357513
vt 0.454979 0.984452
vt 0.387012 0.617559
vt 0.430959 0.971761
vt 0.084815 0.348234
vt 0.051109 0.458133
vt 0.400080 0.711685
vt 0.365431 0.704197
vt 0.306060 0.241249
vt 0.068883 0.428742
vt 0.084854 0.455480
vt 0.965049 0.162711
vt 0.982342 0.129408
vt 0.598972 0.386870
vt 0.992110 0.177696
vt 0.555481 0.410714
vt 0.123548 0.680593
vt 0.715654 0.202573
vt 0.149687 0.701973
vt 0.105180 0.703602
vt 0.755834 0.218948
vt 0.171539 0.378275
vt 0.338617 0.133927
vt 0.361478 0.101737
vt 0.212109 0.374357
vt 0.170119 0.410332
vt 0.032787 0.220418
vt 0.518867 0.664953
vt 0.551115 0.688788
vt 0.030612 0.180544
vt 0.051072 0.205460
vt 0.603936 0.807852
vt 0.646237 0.777270
vt 0.880435 0.285657
vt 0.639928 0.827167
vt 0.918947 0.306352
vt 0.608934 0.841700
vt 0.172132 0.346024
vt 0.404549 0.883220
vt 0.393269 0.844172
vt 0.202978 0.326515
vt 0.425011 0.855113
vt 0.431960 0.881360
vt 0.171061 0.145130
vt 0.187094 0.101907
vt 0.203100 0.135145
vt 0.848430 0.178351
vt 0.857036 0.140379
vt 0.879448 0.170555
vt 0.056416 0.567941
vt 0.048091 0.602139
vt 0.561843 0.718893
vt 0.014335 0.603180
vt 0.021603 0.572513
vt 0.528964 0.713527
vt 0.595994 0.937647
vt 0.386179 0.484396
vt 0.365431 0.515089
vt 0.556324 0.949896
vt 0.546416 0.926696
vt 0.568614 0.917950
vt 0.524296 0.489340
vt 0.551382 0.506067
vt 0.519005 0.520840
vt 0.133750 0.546143
vt 0.158812 0.556849
vt 0.128684 0.578297
vt 0.523743 0.867421
vt 0.520304 0.841522
vt 0.548565 0.829888
vt 0.547786 0.861396
s 0
usemtl Stone-1
f 25/51/1 49/85/1 61/101/1
f 20/43/2 44/80/2 28/57/2
f 17/37/3 58/98/3 31/62/3
f 37/71/4 55/95/4 65/105/4
f 6/16/5 8/20/5 9/21/5
f 50/86/6 34/66/6 64/104/6
f 2/5/7 60/100/7 7/17/7
f 32/63/8 8/19/8 3/7/8
f 4/11/9 43/79/9 6/15/9
f 8/19/10 23/48/10 1/1/10
f 7/17/11 29/59/11 4/10/11
f 45/81/12 15/32/12 27/55/12
f 4/12/5 9/21/5 7/18/5
f 23/47/13 5/13/13 1/2/13
f 56/96/14 11/24/14 24/50/14
f 7/18/5 5/14/5 2/4/5
f 59/99/15 21/45/15 30/60/15
f 46/82/16 2/6/16 5/13/16
f 43/79/17 3/9/17 6/15/17
f 38/72/18 33/65/18 42/78/18
f 9/21/5 1/3/5 5/14/5
f 51/89/19 40/76/19 19/41/19
f 62/102/20 16/34/20 41/77/20
f 10/22/21 11/26/21 12/27/21
f 13/28/22 14/30/22 15/31/22
f 16/34/23 17/36/23 18/38/23
f 19/40/24 20/44/24 21/45/24
f 22/46/25 23/47/25 24/49/25
f 25/51/26 26/53/26 27/54/26
f 28/56/27 29/59/27 30/60/27
f 31/61/28 32/64/28 33/65/28
f 34/66/29 36/69/29 37/71/29
f 38/73/30 40/76/30 41/77/30
f 42/78/31 43/79/31 44/80/31
f 45/81/32 46/82/32 47/83/32
f 49/85/33 51/88/33 48/84/33
f 53/93/34 55/95/34 52/90/34
f 56/96/35 57/97/35 58/98/35
f 59/99/36 60/100/36 61/101/36
f 63/103/37 65/105/37 62/102/37
f 24/49/38 10/23/38 22/46/38
f 13/29/39 35/67/39 34/66/39
f 19/40/40 48/84/40 51/88/40
f 16/34/41 38/73/41 41/77/41
f 12/27/42 52/90/42 55/95/42
f 14/30/43 27/54/43 15/31/43
f 20/44/44 30/60/44 21/45/44
f 31/61/45 18/39/45 17/35/45
f 24/50/46 57/97/46 56/96/46
f 42/78/47 32/64/47 43/79/47
f 30/60/48 60/100/48 59/99/48
f 27/55/49 46/82/49 45/81/49
f 37/71/50 10/22/50 12/27/50
f 19/41/51 39/74/51 20/42/51
f 28/57/52 43/79/52 29/58/52
f 22/46/53 46/82/53 23/47/53
f 41/77/54 63/103/54 62/102/54
f 42/78/55 39/75/55 38/72/55
f 35/68/56 47/83/56 36/70/56
f 50/87/57 14/30/57 13/28/57
f 16/34/58 53/93/58 17/36/58
f 31/62/59 57/97/59 32/63/59
f 61/101/60 26/53/60 25/51/60
f 37/71/61 64/104/61 34/66/61
f 64/104/62 51/89/62 50/86/62
f 65/105/63 54/94/63 62/102/63
f 52/91/64 58/98/64 53/92/64
f 48/84/65 61/101/65 49/85/65
f 22/46/66 36/70/66 47/83/66
f 25/51/67 14/30/67 49/85/67
f 20/43/68 39/75/68 44/80/68
f 17/37/69 53/92/69 58/98/69
f 37/71/70 12/27/70 55/95/70
f 6/16/5 3/8/5 8/20/5
f 50/86/71 13/29/71 34/66/71
f 2/5/7 26/53/7 60/100/7
f 32/63/72 57/97/72 8/19/72
f 4/11/9 29/58/9 43/79/9
f 8/19/73 57/97/73 23/48/73
f 7/17/74 60/100/74 29/59/74
f 45/81/75 35/68/75 15/32/75
f 4/12/5 6/16/5 9/21/5
f 23/47/76 46/82/76 5/13/76
f 56/96/77 52/91/77 11/24/77
f 7/18/5 9/21/5 5/14/5
f 59/99/78 48/84/78 21/45/78
f 46/82/16 26/52/16 2/6/16
f 43/79/79 32/64/79 3/9/79
f 38/72/80 18/39/80 33/65/80
f 9/21/5 8/20/5 1/3/5
f 51/89/81 63/103/81 40/76/81
f 62/102/82 54/94/82 16/34/82
f 34/66/83 35/67/83 36/69/83
f 38/73/84 39/74/84 40/76/84
f 49/85/85 50/87/85 51/88/85
f 53/93/86 54/94/86 55/95/86
f 63/103/87 64/104/87 65/105/87
f 24/49/88 11/25/88 10/23/88
f 13/29/89 15/33/89 35/67/89
f 19/40/90 21/45/90 48/84/90
f 16/34/91 18/38/91 38/73/91
f 12/27/92 11/26/92 52/90/92
f 14/30/93 25/51/93 27/54/93
f 20/44/94 28/56/94 30/60/94
f 31/61/95 33/65/95 18/39/95
f 24/50/96 23/48/96 57/97/96
f 42/78/97 33/65/97 32/64/97
f 30/60/98 29/59/98 60/100/98
f 27/55/99 26/52/99 46/82/99
f 37/71/100 36/69/100 10/22/100
f 19/41/101 40/76/101 39/74/101
f 28/57/102 44/80/102 43/79/102
f 22/46/103 47/83/103 46/82/103
f 41/77/104 40/76/104 63/103/104
f 42/78/105 44/80/105 39/75/105
f 35/68/106 45/81/106 47/83/106
f 50/87/107 49/85/107 14/30/107
f 16/34/108 54/94/108 53/93/108
f 31/62/109 58/98/109 57/97/109
f 61/101/110 60/100/110 26/53/110
f 37/71/111 65/105/111 64/104/111
f 64/104/112 63/103/112 51/89/112
f 65/105/113 55/95/113 54/94/113
f 52/91/114 56/96/114 58/98/114
f 48/84/115 59/99/115 61/101/115
f 22/46/116 10/23/116 36/70/116
