# Blender 3.3.1
# www.blender.org
mtllib Tree.mtl
o Tree
v -0.652589 0.787401 0.513390
v -0.536981 2.180848 0.591221
v -0.741812 0.844378 -0.721956
v -0.414011 1.902033 -0.691897
v 0.684718 0.820181 0.676284
v 0.655841 1.953175 0.652200
v 0.747910 0.834853 -0.662511
v 0.639581 1.755160 -0.641786
v -0.623436 0.514238 -0.333333
v -0.623436 0.514238 0.333333
v -0.696256 2.307654 0.295688
v -0.717714 2.708276 -0.210499
v 0.633258 0.468741 0.333333
v 0.633258 0.468741 -0.333333
v 0.645871 2.100190 -0.304451
v 0.695343 2.059047 0.283339
v -0.720367 1.041283 0.621445
v -0.720367 1.756423 0.583176
v -0.600551 1.575507 -0.624277
v -0.701383 1.195900 -0.767768
v 0.760601 1.702544 -0.717187
v 0.749081 1.190136 -0.792189
v 0.717155 1.575349 0.690210
v 0.666520 1.143890 0.693055
v 0.785533 1.763044 -0.160963
v 0.923463 1.119675 -0.333333
v 0.794926 1.590652 0.283081
v 0.836134 1.089796 0.292178
v -1.000000 1.788893 0.269552
v -1.000000 0.997215 0.333333
v -0.950340 1.980856 -0.292024
v -1.000000 0.997215 -0.333333
v 0.315649 0.669872 -0.721956
v -0.236043 0.669872 -0.721956
v -0.130478 2.254893 -0.700201
v 0.390347 1.948641 -0.668277
v -0.311477 0.605566 0.717440
v 0.355189 0.605566 0.717440
v 0.237975 2.040668 0.754649
v -0.333333 2.275441 0.436429
v -0.354792 2.879143 -0.175405
v 0.237975 2.604749 -0.220489
v -0.333333 2.478521 0.330782
v 0.237975 2.224613 0.336474
v 0.333333 0.330548 -0.333333
v -0.333333 0.330548 -0.333333
v 0.333333 0.330548 0.333333
v -0.333333 0.330548 0.333333
v 0.333333 1.033953 0.825495
v -0.333333 1.033953 0.825495
v 0.333333 1.749093 0.787226
v -0.333333 1.749093 0.787226
v -0.224241 1.067676 -0.851634
v 0.327451 1.067676 -0.851634
v -0.197415 1.709685 -0.795892
v 0.354276 1.709685 -0.795892
v 0.000000 0.000000 -0.214110
v 0.000000 0.338645 -0.214110
v 0.185425 0.000000 -0.107055
v 0.185425 0.338645 -0.107055
v 0.185425 0.000000 0.107055
v 0.185425 0.338645 0.107055
v 0.000000 0.000000 0.214110
v 0.000000 0.338645 0.214110
v -0.185425 0.000000 0.107055
v -0.185425 0.338645 0.107055
v -0.185425 0.000000 -0.107055
v -0.185425 0.338645 -0.107055
vn -0.5744 0.1620 -0.8024
vn 0.1032 0.8858 -0.4525
vn 0.9657 0.1759 0.1911
vn -0.4560 0.1805 0.8715
vn 0.3546 -0.7697 0.5309
vn -0.2900 0.4417 0.8490
vn -0.2006 0.5872 -0.7842
vn -0.3920 0.7132 0.5811
vn 0.3249 -0.7050 -0.6304
vn 0.4185 -0.9082 -0.0000
vn 0.3339 0.9353 -0.1167
vn 0.9764 0.2076 0.0599
vn -0.6763 0.3637 0.6406
vn -0.8612 0.4995 0.0946
vn -0.7886 -0.6149 -0.0000
vn -1.0000 -0.0000 -0.0000
vn -0.6143 -0.4789 0.6271
vn -0.7199 0.0371 0.6931
vn 0.9506 -0.3105 -0.0000
vn 0.9864 0.0837 0.1417
vn 0.9052 -0.4035 -0.1336
vn 0.9359 0.0303 -0.3510
vn -0.5860 -0.2262 0.7781
vn -0.4651 0.0473 0.8840
vn 0.9410 -0.2966 0.1628
vn 0.9218 0.0827 0.3788
vn 0.2437 -0.3071 -0.9199
vn 0.1160 0.0811 -0.9899
vn -0.7590 -0.5918 -0.2715
vn -0.8352 0.3742 -0.4030
vn -0.0642 0.3677 -0.9277
vn -0.0000 0.0865 -0.9963
vn -0.1054 -0.3054 -0.9464
vn -0.0000 -0.3099 -0.9508
vn 0.3801 -0.0385 0.9242
vn -0.0000 0.0534 0.9986
vn 0.2627 -0.2234 0.9387
vn -0.0000 -0.2446 0.9696
vn -0.5350 -0.8449 -0.0000
vn -0.0000 -1.0000 -0.0000
vn -0.2667 -0.7731 -0.5755
vn -0.0000 -0.7533 -0.6577
vn 0.3439 0.9383 0.0367
vn 0.3399 0.7768 0.5302
vn 0.5238 0.5906 -0.6139
vn 0.3848 0.5796 -0.7183
vn 0.3554 0.8877 0.2928
vn 0.1502 0.9050 0.3981
vn -0.6242 -0.4753 0.6200
vn -0.0000 -0.8131 0.5822
vn 0.3033 0.1440 0.9420
vn -0.0000 0.1110 0.9938
vn -0.4028 0.0408 -0.9144
vn -0.0000 0.4711 -0.8821
vn 0.5000 -0.0000 -0.8660
vn 1.0000 -0.0000 -0.0000
vn 0.5000 -0.0000 0.8660
vn -0.5000 -0.0000 0.8660
vn -0.0000 1.0000 -0.0000
vn -0.5000 -0.0000 -0.8660
vn -0.5510 0.2649 -0.7913
vn 0.3896 0.3874 -0.8355
vn 0.9652 0.2051 0.1622
vn 0.3510 0.5193 0.7792
vn 0.4924 -0.6437 0.5858
vn -0.0881 0.8973 0.4325
vn -0.4389 0.3330 -0.8346
vn 0.3493 -0.6846 -0.6398
vn 0.9225 0.2611 -0.2843
vn 0.9303 0.3629 -0.0529
vn -0.7689 0.3218 0.5525
vn -0.9295 0.2690 0.2523
vn -0.9961 0.0532 -0.0699
vn -0.6086 -0.4427 0.6584
vn -0.7425 0.0538 0.6676
vn 0.9081 -0.4048 0.1074
vn 0.9792 0.1952 0.0551
vn 0.9186 -0.1382 -0.3703
vn 0.9716 0.2266 -0.0682
vn -0.4235 -0.4481 0.7873
vn 0.9220 0.0318 0.3858
vn 0.9767 -0.1134 0.1823
vn 0.2262 -0.3346 -0.9148
vn 0.1907 0.1380 -0.9719
vn -0.8286 0.0224 -0.5593
vn -0.6469 0.0646 -0.7598
vn -0.4167 0.0959 -0.9040
vn -0.1992 -0.1041 -0.9744
vn 0.2666 0.0515 0.9624
vn 0.3769 -0.0268 0.9259
vn -0.4033 -0.6369 -0.6571
vn 0.7511 0.5453 0.3722
vn 0.3819 0.7325 0.5635
vn 0.5560 0.5528 -0.6207
vn 0.2596 0.6744 -0.6912
vn 0.2789 0.8790 0.3867
vn 0.1926 0.4529 0.8705
vn -0.4515 -0.7131 0.5363
vn 0.2718 0.1942 0.9426
vn -0.2293 0.5398 0.8100
vn -0.2750 0.1989 -0.9406
vn 0.1499 0.1530 -0.9768
vt 0.961786 0.751107
vt 0.811006 0.239860
vt 0.319244 0.491881
vt 0.038064 0.520429
vt 0.737361 0.169703
vt 0.114405 0.169343
vt 0.314571 0.140279
vt 0.974790 0.451826
vt 0.536394 0.543203
vt 0.306708 0.771701
vt 0.553101 0.765112
vt 0.792906 0.392981
vt 0.081840 0.767280
vt 0.210820 0.411005
vt 0.358935 0.343815
vt 0.768818 0.750725
vt 0.979791 0.320547
vt 0.013699 0.190860
vt 0.845208 0.297156
vt 0.897909 0.730900
vt 0.677318 0.134434
vt 0.463765 0.002221
vt 0.551855 0.127015
vt 0.595391 0.466772
vt 0.880954 0.481414
vt 0.118968 0.464030
vt 0.745630 0.481807
vt 0.725034 0.451826
vt 0.741187 0.789598
vt 0.612003 0.447383
vt 0.458131 0.338461
vt 0.722660 0.416853
vt 0.626335 0.781712
vt 0.797349 0.184097
vt 0.262451 0.488032
vt 0.792906 0.099976
vt 0.799440 0.042199
vt 0.122095 0.485449
vt 0.241259 0.123347
vt 0.168398 0.152722
vt 0.340504 0.361126
vt 0.265418 0.380329
vt 0.543196 0.690898
vt 0.157553 0.778557
vt 0.535278 0.606697
vt 0.242759 0.768968
vt 0.711317 0.719340
vt 0.428776 0.417972
vt 0.741187 0.590355
vt 0.283253 0.481006
vt 0.623880 0.688563
vt 0.618757 0.591436
vt 0.741859 0.037125
vt 0.885802 0.035684
vt 0.872209 0.184407
vt 0.632463 0.002221
vt 0.997779 0.002221
vt 0.294043 0.003390
vt 0.997779 0.195664
vt 0.093543 0.074083
vt 0.152161 0.353352
vt 0.111061 0.260344
vt 0.394277 0.171104
vt 0.377866 0.284354
vt 0.347988 0.574587
vt 0.974790 0.662904
vt 0.347988 0.705584
vt 0.966370 0.530170
vt 0.789657 0.308379
vt 0.066773 0.681514
vt 0.700153 0.206601
vt 0.002221 0.560466
vt 0.535278 0.204736
vt 0.530835 0.064108
vt 0.565272 0.329816
vt 0.530835 0.213529
vt 0.657406 0.208050
vt 0.699828 0.321858
vt 0.746801 0.550046
vt 0.059046 0.411612
vt 0.758607 0.684237
vt 0.002221 0.269290
vt 0.877282 0.545040
vt 0.883002 0.666340
vt 0.262892 0.699517
vt 0.261876 0.573018
vt 0.124553 0.699982
vt 0.125223 0.570401
vt 0.183800 0.235334
vt 0.220361 0.323806
vt 0.293924 0.195086
vt 0.327316 0.290853
vt 0.418275 0.568709
vt 0.458771 0.485449
vt 0.422718 0.635598
vt 0.352431 0.568709
vt 0.418275 0.527079
vt 0.494824 0.506264
vt 0.352431 0.527079
vt 0.458771 0.656413
vt 0.418276 0.735230
vt 0.418276 0.485449
vt 0.494824 0.547894
vt 0.352431 0.485449
vt 0.352431 0.735230
vt 0.494824 0.635598
vt 0.418275 0.693600
vt 0.458771 0.568709
vt 0.352431 0.693600
vt 0.494824 0.593968
vt 0.422718 0.547894
vt 0.418275 0.651970
vt 0.458771 0.573152
vt 0.352431 0.651970
vt 0.418275 0.610340
vt 0.422718 0.506264
vt 0.422718 0.593968
vt 0.352431 0.610340
s 0
usemtl Tree
f 31/58/1 4/7/1 19/39/1
f 56/92/2 8/15/2 21/41/2
f 27/51/3 6/11/3 23/43/3
f 52/88/4 2/4/4 18/38/4
f 13/25/5 38/68/5 47/83/5
f 11/21/6 40/71/6 43/77/6
f 35/63/7 12/22/7 41/74/7
f 12/23/8 43/77/8 41/73/8
f 33/61/9 14/26/9 45/80/9
f 14/27/10 47/83/10 45/79/10
f 8/15/11 25/48/11 21/41/11
f 25/47/12 16/33/12 27/51/12
f 18/36/13 11/21/13 29/53/13
f 11/21/14 31/56/14 29/53/14
f 30/55/15 9/17/15 10/19/15
f 29/54/16 32/59/16 30/55/16
f 1/2/17 30/55/17 10/19/17
f 18/37/18 30/55/18 17/34/18
f 14/28/19 28/52/19 13/24/19
f 26/49/20 27/51/20 28/52/20
f 7/14/21 26/50/21 14/26/21
f 21/41/22 26/50/22 22/42/22
f 50/86/23 1/3/23 37/65/23
f 52/88/24 17/35/24 50/86/24
f 28/52/25 5/9/25 13/24/25
f 27/51/26 24/45/26 28/52/26
f 54/90/27 7/14/27 33/61/27
f 56/92/28 22/42/28 54/90/28
f 32/60/29 3/6/29 9/18/29
f 32/60/30 19/39/30 20/40/30
f 19/39/31 53/89/31 20/40/31
f 55/91/32 54/90/32 53/89/32
f 3/6/33 53/89/33 34/62/33
f 53/89/34 33/61/34 34/62/34
f 23/44/35 49/85/35 24/46/35
f 51/87/36 50/86/36 49/85/36
f 5/10/37 49/85/37 38/67/37
f 49/85/38 37/65/38 38/67/38
f 46/81/39 10/20/39 9/16/39
f 45/79/40 48/84/40 46/81/40
f 34/62/41 9/18/41 3/6/41
f 34/62/42 45/80/42 46/82/42
f 15/30/43 44/78/43 16/32/43
f 42/75/44 43/77/44 44/78/44
f 36/64/45 15/31/45 8/15/45
f 35/63/46 42/76/46 36/64/46
f 44/78/47 6/12/47 16/32/47
f 44/78/48 40/71/48 39/69/48
f 10/20/49 37/66/49 1/1/49
f 47/83/50 37/66/50 48/84/50
f 6/13/51 51/87/51 23/44/51
f 39/70/52 52/88/52 51/87/52
f 4/7/53 55/91/53 19/39/53
f 55/91/54 36/64/54 56/92/54
f 58/96/55 59/97/55 57/93/55
f 60/99/56 61/102/56 59/97/56
f 62/105/57 63/107/57 61/101/57
f 64/109/58 65/112/58 63/107/58
f 64/110/59 62/106/59 58/95/59
f 66/114/16 67/115/16 65/112/16
f 68/118/60 57/93/60 67/115/60
f 63/108/40 65/111/40 67/116/40
f 31/58/61 12/22/61 4/7/61
f 56/92/62 36/64/62 8/15/62
f 27/51/63 16/33/63 6/11/63
f 52/88/64 40/72/64 2/4/64
f 13/25/65 5/8/65 38/68/65
f 11/21/66 2/5/66 40/71/66
f 35/63/67 4/7/67 12/22/67
f 12/23/8 11/21/8 43/77/8
f 33/61/68 7/14/68 14/26/68
f 14/27/10 13/25/10 47/83/10
f 8/15/69 15/31/69 25/48/69
f 25/47/70 15/29/70 16/33/70
f 18/36/71 2/5/71 11/21/71
f 11/21/72 12/23/72 31/56/72
f 30/55/15 32/59/15 9/17/15
f 29/54/73 31/57/73 32/59/73
f 1/2/74 17/34/74 30/55/74
f 18/37/75 29/54/75 30/55/75
f 14/28/76 26/49/76 28/52/76
f 26/49/77 25/47/77 27/51/77
f 7/14/78 22/42/78 26/50/78
f 21/41/79 25/48/79 26/50/79
f 50/86/80 17/35/80 1/3/80
f 52/88/24 18/38/24 17/35/24
f 28/52/81 24/45/81 5/9/81
f 27/51/82 23/43/82 24/45/82
f 54/90/83 22/42/83 7/14/83
f 56/92/84 21/41/84 22/42/84
f 32/60/85 20/40/85 3/6/85
f 32/60/86 31/58/86 19/39/86
f 19/39/87 55/91/87 53/89/87
f 55/91/32 56/92/32 54/90/32
f 3/6/88 20/40/88 53/89/88
f 53/89/34 54/90/34 33/61/34
f 23/44/89 51/87/89 49/85/89
f 51/87/36 52/88/36 50/86/36
f 5/10/90 24/46/90 49/85/90
f 49/85/38 50/86/38 37/65/38
f 46/81/39 48/84/39 10/20/39
f 45/79/40 47/83/40 48/84/40
f 34/62/91 46/82/91 9/18/91
f 34/62/42 33/61/42 45/80/42
f 15/30/92 42/75/92 44/78/92
f 42/75/93 41/73/93 43/77/93
f 36/64/94 42/76/94 15/31/94
f 35/63/95 41/74/95 42/76/95
f 44/78/96 39/69/96 6/12/96
f 44/78/97 43/77/97 40/71/97
f 10/20/98 48/84/98 37/66/98
f 47/83/50 38/68/50 37/66/50
f 6/13/99 39/70/99 51/87/99
f 39/70/100 40/72/100 52/88/100
f 4/7/101 35/63/101 55/91/101
f 55/91/102 35/63/102 36/64/102
f 58/96/55 60/99/55 59/97/55
f 60/99/56 62/104/56 61/102/56
f 62/105/57 64/109/57 63/107/57
f 64/109/58 66/114/58 65/112/58
f 62/106/59 60/100/59 58/95/59
f 58/95/59 68/117/59 66/113/59
f 66/113/59 64/110/59 58/95/59
f 66/114/16 68/118/16 67/115/16
f 68/118/60 58/96/60 57/93/60
f 67/116/40 57/94/40 63/108/40
f 57/94/40 59/98/40 63/108/40
f 59/98/40 61/103/40 63/108/40
